<?xml version="1.0" encoding="utf-8"?>
<!-- Generator: Adobe Illustrator 22.1.0, SVG Export Plug-In . SVG Version: 6.00 Build 0)  -->
<svg version="1.1" id="Layer_1" xmlns="http://www.w3.org/2000/svg" xmlns:xlink="http://www.w3.org/1999/xlink" x="0px" y="0px"
	 viewBox="0 0 48 48" style="enable-background:new 0 0 48 48;" xml:space="preserve">
<style type="text/css">
	.st0{fill:none;stroke:#ff2750;stroke-width:2;stroke-linejoin:round;stroke-miterlimit:10;}
</style>
<g>
	<path class="st0" d="M24,44c3.2,0,5.7-2.6,5.7-5.7H18.3C18.3,41.4,20.8,44,24,44z"/>
	<path class="st0" d="M26.7,7.8c0.1-0.3,0.2-0.6,0.2-1C26.9,5.3,25.6,4,24,4s-2.9,1.3-2.9,2.9c0,0.3,0.1,0.7,0.2,1
		c0.9-0.2,1.8-0.3,2.7-0.3S25.8,7.7,26.7,7.8z"/>
	<path class="st0" d="M21.3,7.8c-6.2,1.3-10.9,6.8-10.9,13.3v12.1l-2.9,5h2.9h7.9"/>
	<path class="st0" d="M29.7,38.3h7.9h2.9l-2.9-5V21.1c0-6.5-4.7-12.1-10.9-13.3"/>
	<line class="st0" x1="18.3" y1="38.3" x2="29.7" y2="38.3"/>
	<path class="st0" d="M26.7,7.8c-0.9-0.2-1.8-0.3-2.7-0.3s-1.8,0.1-2.7,0.3"/>
</g>
</svg>
